<?xml version="1.0" encoding="UTF-8" standalone="no"?>
<svg
   xmlns:dc="http://purl.org/dc/elements/1.1/"
   xmlns:cc="http://creativecommons.org/ns#"
   xmlns:rdf="http://www.w3.org/1999/02/22-rdf-syntax-ns#"
   xmlns:svg="http://www.w3.org/2000/svg"
   xmlns="http://www.w3.org/2000/svg"
   xmlns:sodipodi="http://sodipodi.sourceforge.net/DTD/sodipodi-0.dtd"
   xmlns:inkscape="http://www.inkscape.org/namespaces/inkscape"
   width="87mm"
   height="86mm"
   viewBox="0 0 86.99999 86"
   version="1.1"
   id="svg8"
   inkscape:version="1.0.1 (3bc2e813f5, 2020-09-07)"
   sodipodi:docname="Awebster-logo.svg">
  <defs
     id="defs2" />
  <sodipodi:namedview
     id="base"
     pagecolor="#ffffff"
     bordercolor="#666666"
     borderopacity="1.0"
     inkscape:pageopacity="0.0"
     inkscape:pageshadow="2"
     inkscape:zoom="0.98994949"
     inkscape:cx="445.31299"
     inkscape:cy="334.55086"
     inkscape:document-units="mm"
     inkscape:current-layer="layer1"
     inkscape:document-rotation="0"
     showgrid="false"
     inkscape:window-width="1920"
     inkscape:window-height="1009"
     inkscape:window-x="-8"
     inkscape:window-y="-8"
     inkscape:window-maximized="1"
     units="mm"
     width="124mm">
    <inkscape:grid
       type="xygrid"
       id="grid116" />
  </sodipodi:namedview>
  <metadata
     id="metadata5">
    <rdf:RDF>
      <cc:Work
         rdf:about="">
        <dc:format>image/svg+xml</dc:format>
        <dc:type
           rdf:resource="http://purl.org/dc/dcmitype/StillImage" />
        <dc:title></dc:title>
      </cc:Work>
    </rdf:RDF>
  </metadata>
  <g
     inkscape:label="Layer 1"
     inkscape:groupmode="layer"
     id="layer1">
    <g
       id="g104"
       transform="matrix(0.71501418,0,0,0.71501418,-54.409151,-3.2615077)"
       inkscape:export-xdpi="313.03448"
       inkscape:export-ydpi="313.03448"
       style="fill:#072ac8;fill-opacity:1">
      <path
         style="fill:#072ac8;fill-opacity:1;stroke-width:0.352777"
         d="m 149.93864,91.47774 c -0.32023,-0.61925 -0.7068,-1.53207 -0.85903,-2.02847 -0.15225,-0.4964 -1.01572,-2.80755 -1.91883,-5.13589 -0.90311,-2.32833 -2.17354,-5.74146 -2.82316,-7.58472 -0.64963,-1.84326 -1.68875,-4.70076 -2.30918,-6.35 -0.62042,-1.64924 -2.04927,-5.69736 -3.17522,-8.99583 -1.57471,-4.61313 -1.93685,-6.03793 -1.56914,-6.17361 0.26291,-0.097 2.1858,-0.097 4.27305,0 l 3.79501,0.17638 1.52339,4.40973 c 0.83785,2.42534 1.69065,4.96534 1.89511,5.64444 0.20444,0.6791 0.784,2.42535 1.28788,3.88056 0.5039,1.45521 1.67181,4.8438 2.59538,7.53022 0.92356,2.6864 1.77851,4.98368 1.89988,5.10506 0.34298,0.34298 0.84571,-0.6365 1.41532,-2.75751 0.28657,-1.06715 0.93944,-3.1309 1.4508,-4.58611 2.46329,-7.00988 2.94512,-8.42822 3.47536,-10.23055 0.31398,-1.06715 0.71598,-2.25778 0.89334,-2.64584 0.53741,-1.17571 1.76694,-5.49749 1.76694,-6.21077 0,-0.60282 0.28996,-0.66839 2.95582,-0.66839 3.43016,0 3.01062,-0.48205 4.75897,5.46805 1.33772,4.55259 3.51635,11.39288 3.98876,12.52361 0.20266,0.48507 0.8172,2.23132 1.36565,3.88056 1.89838,5.70866 2.4884,6.58783 2.90312,4.32585 0.0983,-0.53595 1.40837,-4.46696 2.91134,-8.73557 3.37355,-9.58127 4.39968,-12.59899 4.39968,-12.93896 0,-0.14506 0.3289,-1.14282 0.7309,-2.21725 l 0.7309,-1.95351 h 4.19218 4.19218 l -0.91389,2.38125 c -0.50264,1.30968 -1.14328,3.175 -1.42364,4.14513 -0.28036,0.97014 -1.0693,3.27202 -1.7532,5.11528 -0.6839,1.84327 -1.63898,4.46264 -2.1224,5.82084 -0.48342,1.35819 -1.32668,3.58069 -1.87392,4.93888 -0.54724,1.3582 -1.42422,3.81882 -1.94884,5.46806 -0.52463,1.64924 -1.1605,3.47486 -1.41305,4.05694 -0.25256,0.58209 -0.81027,2.05053 -1.23937,3.2632 l -0.78017,2.20486 h -4.16524 c -2.7403,0 -4.25039,-0.13775 -4.41411,-0.40266 -0.28431,-0.46002 -4.53881,-12.70625 -6.3864,-18.38276 -0.6789,-2.08579 -1.33844,-3.79236 -1.46567,-3.79236 -0.25861,0 -1.20486,2.4485 -3.27206,8.46667 -0.76645,2.23132 -1.61468,4.53323 -1.885,5.11535 -0.27029,0.58212 -0.83919,2.40775 -1.26419,4.05695 -0.425,1.64919 -0.99608,3.4351 -1.26905,3.96867 l -0.4963,0.97014 h -4.03883 -4.03883 z"
         id="path52"
         sodipodi:nodetypes="sssssssscsssssssssssssssssscccsssssssscsssssssscccs" />
      <path
         style="fill:#072ac8;stroke:none;stroke-width:0.755952;fill-opacity:1"
         d="m 143.67976,122.12589 c -6.77137,-1.89976 -14.70606,-7.25898 -19.52326,-13.18631 -4.02027,-4.9467 -9.47937,-15.68749 -11.40677,-22.44286 l -1.24019,-4.3467 h -9.36646 c -5.15156,0 -9.82018,-0.17412 -10.37473,-0.38693 -0.6787,-0.26043 -1.52275,1.03685 -2.5822,3.96875 l -1.57392,4.35568 h -4.97654 c -2.737101,0 -5.171691,-0.19532 -5.410201,-0.43405 -0.83536,-0.83609 12.713691,-38.76652 17.714801,-49.59239 8.63099,-18.68347 22.47822,-29.13965 42.459,-32.0612298 7.15982,-1.04691 21.77231,-0.49722 27.44712,1.03251 l 3.77977,1.0188798 0.21804,6.09575 0.21807,6.09575 -6.91622,-1.79637 c -8.36866,-2.17361 -21.19466,-2.46618 -28.32387,-0.64609 -9.57596,2.44475 -18.41691,8.2838 -23.37472,15.43794 l -2.14819,3.09982 1.93717,5.842 c 7.41936,22.37473 15.4737,44.60149 18.09684,49.94007 5.79653,11.79698 13.74417,17.52042 25.16106,18.11967 4.31832,0.22665 7.47404,-0.0455 10.40356,-0.89709 2.31274,-0.67236 4.40779,-1.22243 4.65562,-1.22243 0.24785,0 0.45061,2.67155 0.45061,5.93683 v 5.93682 l -5.2483,0.86675 c -7.41756,1.22498 -13.94208,0.98618 -20.07609,-0.73477 z M 106.87914,68.73186 c -1.31805,-4.84616 -5.2338,-14.55209 -5.87088,-14.55209 -0.57048,0 -4.60444,10.76952 -5.73396,15.30804 l -0.51738,2.07887 h 6.44661 6.44661 z"
         id="path56" />
      <path
         style="fill:#072ac8;stroke-width:0.40936;fill-opacity:1"
         d="m 146.53115,122.57813 c -7.47622,-1.5951 -14.45,-5.70655 -20.46805,-12.06712 -4.81975,-5.09406 -9.79806,-14.201239 -12.85284,-23.512597 l -1.60194,-4.882939 -10.17045,-0.212082 c -11.821594,-0.246511 -10.874065,-0.575948 -12.647381,4.397227 -0.624309,1.750844 -1.271943,3.340781 -1.439187,3.5332 -0.167243,0.192411 -2.440094,0.216378 -5.05078,0.05326 -3.949389,-0.246767 -4.7467,-0.406329 -4.7467,-0.949927 0,-3.155559 14.302207,-42.161908 18.643855,-50.847302 8.330133,-16.6643 21.921883,-26.724225 40.087243,-29.6705549 7.23629,-1.1736877 22.61024,-0.6518879 29.12765,0.9886075 l 2.81471,0.7084924 0.3589,5.620833 c 0.1974,3.091457 0.2547,5.725038 0.12734,5.852403 -0.12737,0.127365 -2.59153,-0.331768 -5.47592,-1.020298 -2.88439,-0.688526 -7.17857,-1.46968 -9.54263,-1.735899 -5.82316,-0.655749 -15.5751,-0.262944 -19.85401,0.799714 -9.62354,2.389983 -18.91018,8.601897 -23.94628,16.017879 l -1.77747,2.617448 3.19024,9.642671 c 4.37666,13.228675 11.70755,33.803841 14.57108,40.895788 6.2022,15.360616 13.41675,21.916326 25.77241,23.418846 4.50438,0.54775 8.23199,0.28541 13.03737,-0.91757 2.87536,-0.71981 3.47754,-0.76561 3.78032,-0.28747 0.19808,0.3128 0.36298,2.88656 0.36642,5.71946 l 0.006,5.15074 -4.60532,0.68742 c -5.60307,0.83635 -13.78431,0.83624 -17.70486,-2.3e-4 z M 107.5961,70.551026 c -1.21291,-5.132498 -5.7922,-16.47678 -6.6511,-16.47678 -0.66944,0 -5.363482,12.554158 -6.007662,16.06742 l -0.281471,1.535103 h 6.603133 6.60313 z"
         id="path106" />
      <path
         style="fill:#072ac8;stroke-width:0.40936;fill-opacity:1"
         d="m 150.50908,92.042479 c -0.8393,-1.021088 -13.18855,-35.079019 -13.18855,-36.372643 0,-0.406775 4.9523,-0.502786 6.80645,-0.131957 1.14447,0.228896 1.29143,0.572946 5.2018,12.178491 4.73021,14.038747 5.06303,14.889416 5.611,14.341437 0.49812,-0.498117 8.57985,-24.619073 8.57985,-25.607657 0,-0.390309 0.35632,-0.900348 0.79181,-1.133418 1.09067,-0.583709 3.81676,-0.532251 4.65872,0.08794 0.40927,0.301471 1.77497,3.959475 3.32412,8.903602 3.99165,12.739413 6.29413,18.726807 6.91606,17.984594 0.0818,-0.09757 2.18158,-6.164297 4.66626,-13.481622 l 4.51762,-13.304233 3.98686,-0.117765 c 3.61275,-0.106714 3.96177,-0.05239 3.71951,0.578935 -0.14704,0.383189 -0.88477,2.554623 -1.63939,4.825419 -0.75463,2.270792 -2.93074,8.365601 -4.83581,13.544018 -1.90506,5.178416 -4.1755,11.395586 -5.0454,13.81593 l -1.58164,4.400631 -2.67788,-0.0045 c -1.47284,-0.0024 -3.33939,-0.113931 -4.14789,-0.247678 l -1.47,-0.243169 -3.59141,-10.54952 c -3.87925,-11.39501 -4.08121,-11.882802 -4.66276,-11.261879 -0.4545,0.485275 -4.86678,12.684927 -6.6242,18.315486 l -1.24577,3.991267 h -3.82438 c -2.56227,0 -3.96318,-0.168867 -4.24498,-0.511701 z"
         id="path108" />
      <path
         style="fill:#072ac8;stroke-width:0.40936;fill-opacity:1"
         d="m 146.08474,122.23934 c -3.59767,-0.78277 -8.14433,-2.78058 -11.86789,-5.21473 -4.04327,-2.64316 -9.60919,-8.1763 -12.18057,-12.10882 -3.54196,-5.416865 -7.75362,-14.630064 -9.69491,-21.208053 l -0.49657,-1.682625 -9.28098,-0.291384 c -8.937899,-0.280613 -11.135469,-0.158387 -12.200095,0.678581 -0.271881,0.213744 -1.079238,1.93836 -1.794127,3.832479 l -1.299799,3.443868 h -3.374055 c -4.662195,0 -5.932583,-0.295859 -5.932474,-1.381596 1.21e-4,-1.202375 5.351887,-16.971205 9.555743,-28.155731 7.454519,-19.833041 10.527508,-26.162476 15.968457,-32.890228 9.23925,-11.424367 22.19809,-17.9214278 38.02746,-19.0655122 8.09663,-0.5851884 23.79283,0.6521676 26.06185,2.0544992 0.62936,0.388964 1.21518,11.076394 0.60699,11.073598 -0.20122,-8.11e-4 -3.03693,-0.576144 -6.30158,-1.27827 -10.08803,-2.169614 -23.34838,-2.120636 -30.6107,0.113072 -8.35015,2.568287 -17.01909,8.773226 -21.57717,15.444211 l -1.88198,2.754373 4.67516,13.691982 c 12.58661,36.861929 15.79058,44.521437 21.53431,51.480566 2.92152,3.53973 7.97984,6.68746 12.9187,8.03913 3.81655,1.04452 11.63041,1.27103 15.35104,0.44501 1.68861,-0.3749 3.73155,-0.78219 4.53985,-0.9051 l 1.46964,-0.22347 0.26533,5.23516 c 0.14594,2.87935 0.16969,5.33082 0.0528,5.44772 -1.12853,1.12852 -18.10817,1.63432 -22.53442,0.67127 z m -38.2382,-51.171714 c 0,-2.47211 -5.82179,-16.99338 -6.81289,-16.99338 -0.32159,0 -0.96709,0.875012 -1.434449,1.944467 -1.430607,3.273664 -4.054789,10.796266 -4.637464,13.293968 l -0.551504,2.364088 h 6.718147 c 5.67479,0 6.71816,-0.0946 6.71816,-0.609143 z"
         id="path110" />
      <path
         style="fill:#072ac8;stroke-width:0.40936;fill-opacity:1"
         d="m 152.57108,92.254536 c -1.0934,-0.09853 -1.87527,-0.413591 -2.10825,-0.849543 -1.15249,-2.156537 -12.73294,-34.281752 -12.73294,-35.322333 0,-0.204033 1.44515,-0.37097 3.21144,-0.37097 2.53928,0 3.34678,0.149941 3.85806,0.716383 0.35564,0.394009 2.39777,5.782226 4.53807,11.973808 2.1403,6.191586 4.10645,11.85612 4.36921,12.58785 0.26276,0.731734 0.70367,1.330425 0.97979,1.330425 0.4754,0 4.36071,-10.774894 7.89719,-21.900813 l 1.56144,-4.912331 2.28966,-0.121027 2.28968,-0.121023 0.82673,1.963149 c 0.45471,1.079731 2.25709,6.291617 4.0053,11.581971 3.4612,10.474152 4.37598,12.852034 5.12142,13.312743 0.26895,0.16622 0.629,0.0757 0.8001,-0.201148 0.17111,-0.276856 2.29171,-6.287362 4.71245,-13.35668 l 4.40135,-12.853307 h 3.66127 c 3.60623,0 3.6571,0.01386 3.38362,0.921065 -0.41116,1.363898 -6.70551,19.002135 -9.97024,27.938887 l -2.84136,7.77786 -3.20528,-0.116262 c -5.13123,-0.186121 -4.55687,0.415492 -7.20052,-7.542147 -3.57859,-10.771859 -5.01972,-14.447086 -5.66498,-14.447086 -0.7178,0 -2.383,4.166763 -5.76004,14.413069 l -2.59163,7.863294 -2.04681,-0.05461 c -1.12574,-0.03003 -2.82887,-0.125088 -3.78473,-0.211224 z"
         id="path112" />
      <path
         style="fill:#072ac8;stroke-width:0.40936;fill-opacity:1"
         d="m 145.09838,121.82764 c -1.23831,-0.33366 -4.27782,-1.61893 -6.75445,-2.85615 -7.09949,-3.54661 -13.37555,-9.4735 -17.65315,-16.671 -2.31027,-3.88727 -5.67836,-11.348028 -7.34884,-16.278656 l -1.32346,-3.90636 -2.39299,-0.262592 c -1.31615,-0.144421 -5.91424,-0.282582 -10.217989,-0.307019 -9.313255,-0.05288 -9.169049,-0.11402 -10.990971,4.660139 -0.664095,1.740194 -1.42856,3.248843 -1.69881,3.352545 -0.270251,0.103707 -2.212419,0.03724 -4.31593,-0.147688 -3.671344,-0.322775 -3.82926,-0.377248 -3.941736,-1.359647 -0.236868,-2.068886 10.93811,-33.264085 16.167496,-45.131921 6.33192,-14.369988 14.12492,-23.106641 25.81342,-28.939182 6.97482,-3.480425 14.23845,-5.2194806 23.42933,-5.6094414 7.27992,-0.3088791 19.06775,0.5822666 23.00457,1.7391164 0.73911,0.217192 0.93856,1.221559 1.33298,6.712612 0.12129,1.688614 0.0571,3.325102 -0.14268,3.636635 -0.30348,0.473271 -1.32992,0.37228 -6.24096,-0.614038 -5.55022,-1.114688 -6.43666,-1.179227 -15.9071,-1.158159 -9.03655,0.0201 -10.35352,0.111695 -13.30423,0.925219 -6.39578,1.763354 -13.70499,5.966752 -18.57789,10.683831 -2.64614,2.561516 -6.18845,7.244061 -6.18845,8.180444 0,1.290784 12.79116,37.931939 16.66316,47.732758 5.27059,13.340932 9.78288,19.575554 16.83483,23.260634 4.31211,2.25333 6.60345,2.78526 12.96448,3.00965 4.5942,0.16207 6.51454,0.0476 9.68072,-0.5772 l 3.94966,-0.77937 0.24178,1.46142 c 0.13298,0.80377 0.24381,3.1439 0.24629,5.20026 0.004,3.52028 -0.0493,3.75581 -0.91656,4.02916 -0.50658,0.15968 -5.25005,0.36465 -10.54104,0.45549 -7.61946,0.13083 -10.0882,0.039 -11.87148,-0.44149 z M 107.71723,69.921467 c -0.27483,-2.005116 -2.48079,-8.00263 -4.66783,-12.690795 -1.72367,-3.694894 -2.33223,-3.879528 -3.657244,-1.109618 -0.989308,2.068115 -4.436141,12.176849 -4.85048,14.225294 l -0.269106,1.330421 h 6.84262 6.84263 z"
         id="path114" />
    </g>
    <path
       style="fill:#d0d0d0;fill-opacity:1;stroke-width:0.352778"
       d="m 485.33355,304.29603 c 0,-1.26118 0.064,-1.77711 0.14229,-1.14652 0.0783,0.63059 0.0783,1.66246 0,2.29305 -0.0783,0.63059 -0.14229,0.11466 -0.14229,-1.14653 z m -4.27747,-2.99861 c 0.007,-0.58208 0.0863,-0.7775 0.17569,-0.43426 0.0894,0.34325 0.0836,0.8195 -0.0131,1.05834 -0.0966,0.23884 -0.16982,-0.042 -0.16263,-0.62408 z m -106.53889,-0.70555 c 0.007,-0.58209 0.0862,-0.7775 0.1757,-0.43426 0.0894,0.34324 0.0836,0.81949 -0.0131,1.05833 -0.0966,0.23884 -0.16982,-0.042 -0.16263,-0.62407 z"
       id="path54" />
    <path
       style="fill:#a3a3a3;fill-opacity:1;stroke-width:0.352778"
       d="m 434.84219,307.64742 c 0.007,-0.58208 0.0863,-0.7775 0.1757,-0.43426 0.0894,0.34325 0.0836,0.8195 -0.0131,1.05834 -0.0966,0.23884 -0.16982,-0.042 -0.16263,-0.62408 z m 6.07725,-6.17361 c 0,-3.97757 0.0514,-5.60475 0.11433,-3.61597 0.0629,1.98879 0.0629,5.24316 0,7.23194 -0.0629,1.98879 -0.11433,0.3616 -0.11433,-3.61597 z m -32.22373,1.20533 c 0.0169,-0.41097 0.10052,-0.49456 0.21314,-0.21314 0.1019,0.25466 0.0894,0.55893 -0.0278,0.67616 -0.11723,0.11722 -0.20061,-0.0911 -0.18529,-0.46302 z m -49.03611,-2.11667 c 0.0169,-0.41097 0.10052,-0.49456 0.21313,-0.21314 0.10191,0.25466 0.0894,0.55894 -0.0278,0.67616 -0.11722,0.11723 -0.2006,-0.0911 -0.18528,-0.46302 z m 73.4187,-7.02616 c 0.007,-0.58208 0.0863,-0.7775 0.1757,-0.43426 0.0894,0.34325 0.0836,0.8195 -0.0131,1.05834 -0.0966,0.23884 -0.16982,-0.042 -0.16263,-0.62408 z m 108.02699,-22.93055 c 3.5e-4,-3.4925 0.0532,-4.87354 0.11732,-3.06896 0.0641,1.80457 0.0638,4.66207 -7.1e-4,6.35 -0.0645,1.68792 -0.11702,0.21146 -0.11665,-3.28104 z m -130.89037,-4.05695 c 0,-2.42534 0.0564,-3.41753 0.12525,-2.20486 0.0689,1.21268 0.0689,3.19705 0,4.40972 -0.0689,1.21268 -0.12525,0.22049 -0.12525,-2.20486 z m -31.39723,-0.35278 c 0,-2.42534 0.0564,-3.41753 0.12525,-2.20486 0.0689,1.21268 0.0689,3.19705 0,4.40973 -0.0689,1.21267 -0.12525,0.22048 -0.12525,-2.20487 z m 130.88056,0 c 0,-2.42534 0.0564,-3.41753 0.12525,-2.20486 0.0689,1.21268 0.0689,3.19705 0,4.40973 -0.0689,1.21267 -0.12525,0.22048 -0.12525,-2.20487 z m -48.5115,-6.2618 c -0.43881,-0.55953 -0.42633,-0.57201 0.13319,-0.1332 0.58764,0.46086 0.77452,0.75056 0.48417,0.75056 -0.0733,0 -0.35107,-0.27781 -0.61736,-0.61736 z m 79.91097,-6.08542 c 0,-2.61937 0.0555,-3.69093 0.12341,-2.38125 0.0679,1.30969 0.0679,3.45282 0,4.7625 -0.0679,1.30969 -0.12341,0.23813 -0.12341,-2.38125 z m -130.88679,-0.88194 c 7.1e-4,-2.13431 0.0589,-2.96195 0.12912,-1.83921 0.0702,1.12275 0.0696,2.869 -0.001,3.88056 -0.071,1.01156 -0.12847,0.093 -0.12767,-2.04135 z m -31.40396,-0.35278 c -10e-4,-1.74625 0.0586,-2.5051 0.13256,-1.68634 0.074,0.81876 0.0749,2.24751 0.002,3.175 -0.0729,0.92749 -0.13344,0.25759 -0.13451,-1.48866 z m 130.88056,0 c -10e-4,-1.74625 0.0586,-2.5051 0.13256,-1.68634 0.074,0.81876 0.0749,2.24751 0.002,3.175 -0.0729,0.92749 -0.13344,0.25759 -0.13451,-1.48866 z"
       id="path50" />
    <path
       style="fill:#8c8c8c;fill-opacity:1;stroke-width:0.352778"
       d="m 379.88888,301.47381 c 0,-3.97757 0.0515,-5.60475 0.11433,-3.61597 0.0629,1.98879 0.0629,5.24316 0,7.23194 -0.0629,1.98879 -0.11433,0.3616 -0.11433,-3.61597 z m 80.08055,0 c 0,-3.97757 0.0514,-5.60475 0.11434,-3.61597 0.0629,1.98879 0.0629,5.24316 0,7.23194 -0.0629,1.98879 -0.11434,0.3616 -0.11434,-3.61597 z m 27.49672,2.29306 c 10e-4,-1.94028 0.0602,-2.68902 0.13164,-1.66387 0.0715,1.02515 0.0707,2.61265 -0.002,3.52778 -0.0724,0.91512 -0.13089,0.0764 -0.12998,-1.86391 z m -78.6591,-6.35 c 7.1e-4,-2.71639 0.0559,-3.78101 0.12306,-2.36582 0.0671,1.41519 0.0667,3.63769 -0.001,4.93889 -0.0676,1.3012 -0.12255,0.14332 -0.122,-2.57307 z m 78.61922,-2.46945 c 0.004,-0.77611 0.0762,-1.05207 0.16054,-0.61324 0.0844,0.43882 0.0812,1.07382 -0.007,1.41111 -0.0883,0.33728 -0.15734,-0.0218 -0.15342,-0.79787 z m -40.94241,-1.41111 c 0.007,-0.58208 0.0862,-0.7775 0.17569,-0.43426 0.0894,0.34325 0.0836,0.8195 -0.0131,1.05834 -0.0966,0.23884 -0.16981,-0.042 -0.16262,-0.62408 z m 30.43052,-30.33889 c 1e-4,-7.56708 0.0468,-10.6125 0.10381,-6.76761 0.057,3.8449 0.0569,10.03615 -1.8e-4,13.75834 -0.0571,3.72218 -0.10373,0.57636 -0.10363,-6.99073 z m -16.38819,10.27375 c 0,-0.0733 0.27781,-0.35106 0.61736,-0.61736 0.55953,-0.43881 0.57201,-0.42633 0.1332,0.1332 -0.46086,0.58764 -0.75056,0.77451 -0.75056,0.48416 z m -22.97555,-13.88972 c -0.43881,-0.55953 -0.42634,-0.572 0.13319,-0.13319 0.33955,0.26629 0.61736,0.5441 0.61736,0.61736 0,0.29035 -0.28969,0.10347 -0.75055,-0.48417 z m 24.8714,-10.84792 c 7.1e-4,-2.1343 0.0589,-2.96194 0.12913,-1.8392 0.0702,1.12274 0.0696,2.86899 -0.001,3.88056 -0.071,1.01156 -0.12847,0.093 -0.12767,-2.04136 z m 33.50911,-2.29305 c 0,-1.84326 0.0594,-2.59733 0.13213,-1.6757 0.0727,0.92164 0.0727,2.42976 0,3.35139 -0.0727,0.92164 -0.13213,0.16757 -0.13213,-1.67569 z"
       id="path48" />
    <path
       style="fill:#767676;fill-opacity:1;stroke-width:0.352778"
       d="m 405.52071,304.09025 c 0.0169,-0.41097 0.10052,-0.49456 0.21314,-0.21314 0.1019,0.25466 0.0894,0.55894 -0.0278,0.67616 -0.11723,0.11722 -0.20061,-0.0911 -0.18529,-0.46302 z m -43.70352,-3.49838 c 0.007,-0.58209 0.0863,-0.7775 0.1757,-0.43426 0.0894,0.34324 0.0836,0.81949 -0.0131,1.05833 -0.0966,0.23884 -0.16982,-0.042 -0.16263,-0.62407 z m 113.59444,0 c 0.007,-0.58209 0.0863,-0.7775 0.1757,-0.43426 0.0894,0.34324 0.0836,0.81949 -0.0131,1.05833 -0.0966,0.23884 -0.16981,-0.042 -0.16262,-0.62407 z m -57.28492,-57.2146 c 0.25466,-0.10191 0.55894,-0.0894 0.67616,0.0278 0.11723,0.11722 -0.0911,0.2006 -0.46302,0.18528 -0.41097,-0.0169 -0.49456,-0.10052 -0.21314,-0.21313 z"
       id="path46" />
    <path
       style="fill:#000080;stroke-width:0.505076"
       d=""
       id="path66"
       transform="scale(0.26458333)" />
    <path
       style="fill:#000080;stroke-width:0.505076"
       d=""
       id="path68"
       transform="scale(0.26458333)" />
  </g>
</svg>
